{
    "asset" : {
        "generator" : "Khronos glTF Blender I/O v1.6.16",
        "version" : "2.0"
    },
    "scene" : 0,
    "scenes" : [
        {
            "name" : "Scene",
            "nodes" : [
                0,
                1
            ]
        }
    ],
    "nodes" : [
        {
            "mesh" : 0,
            "name" : "Plane.003",
            "rotation" : [
                0,
                0,
                -0.04361938685178757,
                0.9990482330322266
            ],
            "scale" : [
                0.212967187166214,
                1.0065268278121948,
                4.790223598480225
            ],
            "translation" : [
                5.284928321838379,
                -1.0358028411865234,
                -0.16532330214977264
            ]
        },
        {
            "mesh" : 1,
            "name" : "Plane",
            "scale" : [
                0.24323004484176636,
                1,
                4.691425323486328
            ],
            "translation" : [
                4.926634788513184,
                -1.0077292919158936,
                -0.1983879655599594
            ]
        }
    ],
    "materials" : [
        {
            "doubleSided" : true,
            "name" : "Material.002",
            "pbrMetallicRoughness" : {
                "baseColorFactor" : [
                    0.8000000715255737,
                    0,
                    0.009379168041050434,
                    1
                ],
                "metallicFactor" : 0,
                "roughnessFactor" : 0.4000000059604645
            }
        }
    ],
    "meshes" : [
        {
            "name" : "Plane.004",
            "primitives" : [
                {
                    "attributes" : {
                        "POSITION" : 0,
                        "NORMAL" : 1,
                        "TEXCOORD_0" : 2
                    },
                    "indices" : 3,
                    "material" : 0
                }
            ]
        },
        {
            "name" : "Plane",
            "primitives" : [
                {
                    "attributes" : {
                        "POSITION" : 4,
                        "NORMAL" : 5,
                        "TEXCOORD_0" : 6
                    },
                    "indices" : 7,
                    "material" : 0
                }
            ]
        }
    ],
    "accessors" : [
        {
            "bufferView" : 0,
            "componentType" : 5126,
            "count" : 24,
            "max" : [
                2.66534423828125,
                0.01862076111137867,
                1.007651686668396
            ],
            "min" : [
                -25.784360885620117,
                -0.44923344254493713,
                -1.0306600332260132
            ],
            "type" : "VEC3"
        },
        {
            "bufferView" : 1,
            "componentType" : 5126,
            "count" : 24,
            "type" : "VEC3"
        },
        {
            "bufferView" : 2,
            "componentType" : 5126,
            "count" : 24,
            "type" : "VEC2"
        },
        {
            "bufferView" : 3,
            "componentType" : 5123,
            "count" : 42,
            "type" : "SCALAR"
        },
        {
            "bufferView" : 4,
            "componentType" : 5126,
            "count" : 4,
            "max" : [
                0.6809073090553284,
                0.006755204871296883,
                1
            ],
            "min" : [
                0.011902809143066406,
                -0.013632819056510925,
                -1
            ],
            "type" : "VEC3"
        },
        {
            "bufferView" : 5,
            "componentType" : 5126,
            "count" : 4,
            "type" : "VEC3"
        },
        {
            "bufferView" : 6,
            "componentType" : 5126,
            "count" : 4,
            "type" : "VEC2"
        },
        {
            "bufferView" : 7,
            "componentType" : 5123,
            "count" : 6,
            "type" : "SCALAR"
        }
    ],
    "bufferViews" : [
        {
            "buffer" : 0,
            "byteLength" : 288,
            "byteOffset" : 0
        },
        {
            "buffer" : 0,
            "byteLength" : 288,
            "byteOffset" : 288
        },
        {
            "buffer" : 0,
            "byteLength" : 192,
            "byteOffset" : 576
        },
        {
            "buffer" : 0,
            "byteLength" : 84,
            "byteOffset" : 768
        },
        {
            "buffer" : 0,
            "byteLength" : 48,
            "byteOffset" : 852
        },
        {
            "buffer" : 0,
            "byteLength" : 48,
            "byteOffset" : 900
        },
        {
            "buffer" : 0,
            "byteLength" : 32,
            "byteOffset" : 948
        },
        {
            "buffer" : 0,
            "byteLength" : 12,
            "byteOffset" : 980
        }
    ],
    "buffers" : [
        {
            "byteLength" : 992,
            "uri" : "data:application/octet-stream;base64,"
        }
    ]
}
