{
    "asset" : {
        "generator" : "Khronos glTF Blender I/O v1.6.16",
        "version" : "2.0"
    },
    "scene" : 0,
    "scenes" : [
        {
            "name" : "Scene",
            "nodes" : [
                0
            ]
        }
    ],
    "nodes" : [
        {
            "mesh" : 0,
            "name" : "stairfloor.001",
            "rotation" : [
                0,
                -0.3829230070114136,
                0,
                0.9237803816795349
            ],
            "scale" : [
                8.032532691955566,
                0.021970583125948906,
                8.042771339416504
            ],
            "translation" : [
                1.0678048133850098,
                -1.0876544713974,
                0.13182097673416138
            ]
        }
    ],
    "materials" : [
        {
            "doubleSided" : true,
            "name" : "Material.002",
            "pbrMetallicRoughness" : {
                "baseColorFactor" : [
                    0.8000000715255737,
                    0,
                    0.009379168041050434,
                    1
                ],
                "metallicFactor" : 0,
                "roughnessFactor" : 0.4000000059604645
            }
        }
    ],
    "meshes" : [
        {
            "name" : "Cube.001",
            "primitives" : [
                {
                    "attributes" : {
                        "POSITION" : 0,
                        "NORMAL" : 1,
                        "TEXCOORD_0" : 2
                    },
                    "indices" : 3,
                    "material" : 0
                }
            ]
        }
    ],
    "accessors" : [
        {
            "bufferView" : 0,
            "componentType" : 5126,
            "count" : 54,
            "max" : [
                0.8116039633750916,
                10.947627067565918,
                0.3776719272136688
            ],
            "min" : [
                -0.39725378155708313,
                0.24508631229400635,
                -0.8797457218170166
            ],
            "type" : "VEC3"
        },
        {
            "bufferView" : 1,
            "componentType" : 5126,
            "count" : 54,
            "type" : "VEC3"
        },
        {
            "bufferView" : 2,
            "componentType" : 5126,
            "count" : 54,
            "type" : "VEC2"
        },
        {
            "bufferView" : 3,
            "componentType" : 5123,
            "count" : 90,
            "type" : "SCALAR"
        }
    ],
    "bufferViews" : [
        {
            "buffer" : 0,
            "byteLength" : 648,
            "byteOffset" : 0
        },
        {
            "buffer" : 0,
            "byteLength" : 648,
            "byteOffset" : 648
        },
        {
            "buffer" : 0,
            "byteLength" : 432,
            "byteOffset" : 1296
        },
        {
            "buffer" : 0,
            "byteLength" : 180,
            "byteOffset" : 1728
        }
    ],
    "buffers" : [
        {
            "byteLength" : 1908,
            "uri" : "data:application/octet-stream;base64,"
        }
    ]
}
